<svg xmlns="http://www.w3.org/2000/svg" xmlns:xlink="http://www.w3.org/1999/xlink" width="135" zoomAndPan="magnify" viewBox="0 0 101.25 111.749997" height="149" preserveAspectRatio="xMidYMid meet" version="1.2"><defs><clipPath id="67421f2cff"><path d="M 55 41 L 99.761719 41 L 99.761719 87 L 55 87 Z M 55 41 "/></clipPath><clipPath id="057918e3f1"><path d="M 15 65 L 97 65 L 97 110.46875 L 15 110.46875 Z M 15 65 "/></clipPath><clipPath id="30973e90c8"><path d="M 17 0.285156 L 97 0.285156 L 97 65 L 17 65 Z M 17 0.285156 "/></clipPath></defs><g id="b8f9134471"><path style=" stroke:none;fill-rule:nonzero;fill:#f7931e;fill-opacity:1;" d="M 63.855469 61.019531 L 89.773438 82.417969 L 63.878906 55.644531 L 0.0078125 105.601562 Z M 63.855469 61.019531 "/><g clip-rule="nonzero" clip-path="url(#67421f2cff)"><path style=" stroke:none;fill-rule:nonzero;fill:#f7931e;fill-opacity:1;" d="M 95.667969 61.304688 C 92.953125 57.273438 89.046875 53.945312 83.945312 51.367188 C 78.847656 48.789062 72.796875 46.542969 65.863281 44.625 C 62.023438 43.589844 58.644531 42.640625 55.753906 41.761719 L 98.78125 86.296875 C 99.421875 83.5625 99.753906 80.589844 99.753906 77.371094 C 99.753906 70.714844 98.382812 65.359375 95.667969 61.304688 Z M 95.667969 61.304688 "/></g><g clip-rule="nonzero" clip-path="url(#057918e3f1)"><path style=" stroke:none;fill-rule:nonzero;fill:#000000;fill-opacity:1;" d="M 58.910156 68.863281 C 59.261719 68.976562 59.617188 69.085938 59.949219 69.195312 C 63.878906 70.472656 66.992188 71.882812 69.308594 73.449219 C 71.605469 75.011719 72.753906 77.128906 72.753906 79.75 C 72.753906 82.242188 71.648438 84.203125 69.464844 85.636719 C 67.253906 87.066406 63.878906 87.792969 59.261719 87.792969 C 55.179688 87.792969 51.09375 87.199219 46.988281 86.03125 C 43.789062 85.105469 40.808594 84.09375 38.070312 82.992188 L 15.175781 98.59375 C 18.730469 100.621094 22.550781 102.425781 26.609375 104.058594 C 31.710938 106.105469 37.054688 107.671875 42.640625 108.796875 C 48.203125 109.917969 53.65625 110.46875 58.976562 110.46875 C 64.1875 110.46875 69.21875 109.898438 74.078125 108.730469 C 78.933594 107.5625 83.328125 105.6875 87.257812 103.109375 C 91.1875 100.53125 94.253906 97.09375 96.464844 92.796875 C 96.484375 92.730469 96.53125 92.6875 96.550781 92.621094 L 63.65625 65.667969 Z M 58.910156 68.863281 "/></g><g clip-rule="nonzero" clip-path="url(#30973e90c8)"><path style=" stroke:none;fill-rule:nonzero;fill:#000000;fill-opacity:1;" d="M 29.902344 58.265625 C 34.09375 60.667969 39.394531 62.894531 45.753906 64.964844 L 61.292969 52.824219 L 47.320312 38.410156 C 46.722656 38.035156 46.195312 37.660156 45.707031 37.265625 C 44.757812 36.492188 44.074219 35.589844 43.632812 34.597656 C 43.234375 33.695312 43.035156 32.679688 43.035156 31.578125 C 43.035156 28.648438 44.207031 26.421875 46.570312 24.902344 C 48.910156 23.382812 52.242188 22.632812 56.527344 22.632812 C 59.792969 22.632812 63.0625 23.074219 66.351562 23.933594 C 69.617188 24.792969 72.597656 25.847656 75.3125 27.0625 C 78.027344 28.296875 80.324219 29.484375 82.203125 30.652344 C 84.101562 31.820312 85.183594 32.570312 85.492188 32.878906 L 96.375 12.386719 C 93.304688 10.445312 89.6875 8.550781 85.492188 6.722656 C 81.296875 4.890625 76.859375 3.351562 72.15625 2.136719 C 67.453125 0.902344 62.488281 0.285156 57.277344 0.285156 C 50.011719 0.285156 43.324219 1.632812 37.1875 4.320312 C 31.046875 7.007812 26.167969 10.953125 22.550781 16.175781 C 18.929688 21.398438 17.097656 27.855469 17.097656 35.546875 C 17.097656 40.921875 18.132812 45.417969 20.230469 49.074219 C 22.351562 52.734375 25.550781 55.773438 29.902344 58.265625 Z M 29.902344 58.265625 "/></g><path style=" stroke:none;fill-rule:nonzero;fill:#000000;fill-opacity:1;" d="M 60.035156 77.4375 L 60.035156 79.488281 L 63.765625 79.488281 L 63.765625 73.625 C 61.714844 73.625 60.035156 75.320312 60.035156 77.4375 Z M 60.035156 77.4375 "/><path style=" stroke:none;fill-rule:nonzero;fill:#000000;fill-opacity:1;" d="M 64.695312 73.625 L 64.695312 79.488281 L 68.425781 79.488281 L 68.425781 77.4375 C 68.425781 75.320312 66.746094 73.625 64.695312 73.625 Z M 64.695312 73.625 "/><path style=" stroke:none;fill-rule:nonzero;fill:#000000;fill-opacity:1;" d="M 60.035156 80.324219 L 63.765625 80.324219 L 63.765625 84.136719 L 60.035156 84.136719 Z M 60.035156 80.324219 "/><path style=" stroke:none;fill-rule:nonzero;fill:#000000;fill-opacity:1;" d="M 64.695312 80.324219 L 68.425781 80.324219 L 68.425781 84.136719 L 64.695312 84.136719 Z M 64.695312 80.324219 "/></g></svg>